<svg version="1.1" xmlns="http://www.w3.org/2000/svg" xmlns:xlink="http://www.w3.org/1999/xlink" width="1403.275" height="596.7476357142857"><style xmlns="http://www.w3.org/1999/xhtml"></style><defs/><g transform="translate(0,0)"><g><rect fill="#FFFFFF" stroke="none" x="0" y="0" width="1403.275" height="596.7476357142857"/></g><g transform="translate(0,0) matrix(1,0,0,1,336.2750000000001,58.699999999999875)"><g><g transform="translate(0,0) scale(7.62,5.18)"><g><path fill="#b7b7b7" stroke="none" stroke-dasharray="1.7976931348623157e+308" d="M 0 0 L 100 0 Q 100 0 100 0 L 100 100 Q 100 100 100 100 L 0 100 Q 0 100 0 100 L 0 0 Q 0 0 0 0 Z"/><g transform="scale(0.13123359580052493,0.19305019305019305)"><path fill="none" stroke="none" stroke-dasharray="1.7976931348623157e+308" d="M 0 0 L 762 0 Q 762 0 762 0 L 762 518 Q 762 518 762 518 L 0 518 Q 0 518 0 518 L 0 0 Q 0 0 0 0 Z"/><path fill="none" stroke="#b7b7b7" stroke-dasharray="1.7976931348623157e+308" d="M 0 0 L 762 0 Q 762 0 762 0 L 762 518 Q 762 518 762 518 L 0 518 Q 0 518 0 518 L 0 0 Q 0 0 0 0 Z" stroke-miterlimit="10" stroke-width="2"/></g></g></g></g></g><g transform="translate(0,0) matrix(1,0,0,1,1098.275,58.74763571428571)"><g><g transform="translate(0,0) scale(2.8500000000000005,5.18)"><g><path fill="#e2e2e2" stroke="none" stroke-dasharray="1.7976931348623157e+308" d="M 0 0 L 100 0 Q 100 0 100 0 L 100 100 Q 100 100 100 100 L 0 100 Q 0 100 0 100 L 0 0 Q 0 0 0 0 Z"/><g transform="scale(0.35087719298245607,0.19305019305019305)"><path fill="none" stroke="none" stroke-dasharray="1.7976931348623157e+308" d="M 0 0 L 285.00000000000006 0 Q 285.00000000000006 0 285.00000000000006 0 L 285.00000000000006 518 Q 285.00000000000006 518 285.00000000000006 518 L 0 518 Q 0 518 0 518 L 0 0 Q 0 0 0 0 Z"/><path fill="none" stroke="#e2e2e2" stroke-dasharray="1.7976931348623157e+308" d="M 0 0 L 285.00000000000006 0 Q 285.00000000000006 0 285.00000000000006 0 L 285.00000000000006 518 Q 285.00000000000006 518 285.00000000000006 518 L 0 518 Q 0 518 0 518 L 0 0 Q 0 0 0 0 Z" stroke-miterlimit="10" stroke-width="2"/></g></g></g></g></g><g transform="translate(0,0) matrix(1,0,0,1,48.27500000000009,58.699999999999875)"><g><g transform="translate(0,0) scale(2.88,5.17)"><g><path fill="#e2e2e2" stroke="none" stroke-dasharray="1.7976931348623157e+308" d="M 0 0 L 100 0 Q 100 0 100 0 L 100 100 Q 100 100 100 100 L 0 100 Q 0 100 0 100 L 0 0 Q 0 0 0 0 Z"/><g transform="scale(0.3472222222222222,0.19342359767891684)"><path fill="none" stroke="none" stroke-dasharray="1.7976931348623157e+308" d="M 0 0 L 288 0 Q 288 0 288 0 L 288 517 Q 288 517 288 517 L 0 517 Q 0 517 0 517 L 0 0 Q 0 0 0 0 Z"/><path fill="none" stroke="#e2e2e2" stroke-dasharray="1.7976931348623157e+308" d="M 0 0 L 288 0 Q 288 0 288 0 L 288 517 Q 288 517 288 517 L 0 517 Q 0 517 0 517 L 0 0 Q 0 0 0 0 Z" stroke-miterlimit="10" stroke-width="2"/></g></g></g></g></g><g transform="translate(0.5,0.5) matrix(1,0,0,1,377.4000000000001,93.1999999999999)"><g><g transform="translate(0,0) scale(9.750000000000002,9.750000000000002)"><g><g><path fill="#676767" stroke="rbga(0,0,0,0)" stroke-dasharray="1.7976931348623157e+308" d="M 21.01527 5.1925 C 21.01527 5.1925 20.881 2.571875 20.17018 1.7625 C 19.44791 0.94375 18.53091 0.753125 17.86082 0.614375 C 17.07682 0.45125 15.63545 0.228125 13.22236 0.09125 C 12.12018 0.028125 11.25727 0 10.41855 0 C 9.679091 0 9.010273 0.020625 8.159455 0.046875 L 7.750273 0.06 C 6.120545 0.10875 4.823636 0.233125 4.27 0.28625 C 4.150364 0.2975 4.068273 0.305 4.025636 0.308125 C 3.968364 0.3125 3.797182 0.323125 3.729727 0.4475 C 3.726545 0.45625 3.720818 0.46375 3.718909 0.471875 C 3.466273 0.51375 2.819091 0.629375 2.306818 0.785625 C 1.453455 1.046875 0.9850909 1.3825 0.5765455 2.026875 C 0.2036364 2.61625 0.1304545 3.6075 0.1030909 3.980625 C 0.09863636 4.019375 0.09609091 4.074375 0.09609091 4.074375 L 0 32.5375 L 0.1387273 35.10688 C 0.1387273 35.10688 0.6726364 37.835 1.207818 38.42688 C 1.693364 38.96563 2.333545 39.28688 3.282364 39.46625 C 3.384182 39.485 3.480273 39.50438 3.573182 39.5225 C 4.288455 39.6625 4.853545 39.7725 6.821182 39.87438 C 7.019091 39.885 7.211273 39.89375 7.401545 39.905 C 8.295 39.95437 9.140727 40 10.27027 40 C 11.07273 40 11.95855 39.9775 12.98245 39.93062 C 16.56073 39.76188 18.33555 39.56125 19.38936 38.81 C 20.42664 38.07062 20.66273 36.97937 20.82055 36.2575 L 20.82755 36.22687 C 21.01018 35.385 21.08145 32.89625 21.08145 32.89625 L 21.01527 5.1925 L 21.01527 5.1925 Z M 10.52545 37.96563 C 9.909455 37.96563 9.411182 37.47563 9.411182 36.87125 C 9.411182 36.26687 9.909455 35.7775 10.52545 35.7775 C 11.14145 35.7775 11.64036 36.26687 11.64036 36.87125 C 11.64036 37.47563 11.14082 37.96563 10.52545 37.96563 L 10.52545 37.96563 Z M 19.24555 32.11125 L 1.755091 32.11125 L 1.755091 4.715 L 19.24491 4.715 L 19.24555 32.11125 L 19.24555 32.11125 Z" stroke-miterlimit="10"/></g></g></g></g></g><g transform="translate(0,0) matrix(1,0,0,1,417.4000000000001,253.19999999999993)"><g><g transform="translate(0,0) scale(0.2,0.2)"><g><path fill="#FFFFFF" stroke="none" stroke-dasharray="1.7976931348623157e+308" d="M 100 50 A 50 50 0 1 0 99.99997500000208 50.04999999166668 Z"/><g transform="scale(5,5)"><path fill="none" stroke="#666666" stroke-dasharray="1.7976931348623157e+308" d="M 10 0 C 15.522846999999999 0 20 4.477153 20 10 C 20 15.522846999999999 15.522846999999999 20 10 20 C 4.477153 20 0 15.522846999999999 0 10 C 0 4.477153 4.477153 0 10 0 Z" stroke-miterlimit="10" stroke-width="2"/></g></g></g></g></g><g transform="translate(0,0) matrix(1,0,0,1,451.7750000000001,253.19999999999993)"><g><g transform="translate(0,0) scale(0.2,0.2)"><g><path fill="#FFFFFF" stroke="none" stroke-dasharray="1.7976931348623157e+308" d="M 100 50 A 50 50 0 1 0 99.99997500000208 50.04999999166668 Z"/><g transform="scale(5,5)"><path fill="none" stroke="#666666" stroke-dasharray="1.7976931348623157e+308" d="M 10 0 C 15.522846999999999 0 20 4.477153 20 10 C 20 15.522846999999999 15.522846999999999 20 10 20 C 4.477153 20 0 15.522846999999999 0 10 C 0 4.477153 4.477153 0 10 0 Z" stroke-miterlimit="10" stroke-width="2"/></g></g></g></g></g><g transform="translate(0,0) matrix(1,0,0,1,484.7750000000001,253.19999999999993)"><g><g transform="translate(0,0) scale(0.2,0.2)"><g><path fill="#FFFFFF" stroke="none" stroke-dasharray="1.7976931348623157e+308" d="M 100 50 A 50 50 0 1 0 99.99997500000208 50.04999999166668 Z"/><g transform="scale(5,5)"><path fill="none" stroke="#666666" stroke-dasharray="1.7976931348623157e+308" d="M 10 0 C 15.522846999999999 0 20 4.477153 20 10 C 20 15.522846999999999 15.522846999999999 20 10 20 C 4.477153 20 0 15.522846999999999 0 10 C 0 4.477153 4.477153 0 10 0 Z" stroke-miterlimit="10" stroke-width="2"/></g></g></g></g></g><g transform="translate(0,0) matrix(1,0,0,1,517.4000000000001,253.19999999999993)"><g><g transform="translate(0,0) scale(0.2,0.2)"><g><path fill="#FFFFFF" stroke="none" stroke-dasharray="1.7976931348623157e+308" d="M 100 50 A 50 50 0 1 0 99.99997500000208 50.04999999166668 Z"/><g transform="scale(5,5)"><path fill="none" stroke="#666666" stroke-dasharray="1.7976931348623157e+308" d="M 10 0 C 15.522846999999999 0 20 4.477153 20 10 C 20 15.522846999999999 15.522846999999999 20 10 20 C 4.477153 20 0 15.522846999999999 0 10 C 0 4.477153 4.477153 0 10 0 Z" stroke-miterlimit="10" stroke-width="2"/></g></g></g></g></g><g transform="matrix(1,0,0,1,422,289)"><g><g><rect fill="rgb(0,0,0)" stroke="none" x="0" y="0" width="113" height="29" fill-opacity="0"/></g></g><g><g><rect fill="rgb(0,0,0)" stroke="none" x="0" y="0" width="113" height="29" fill-opacity="0"/></g></g><g><g><rect fill="rgb(0,0,0)" stroke="none" x="19.28125" y="-0.6666666865348816" width="74" height="29" fill-opacity="0"/></g></g><g><g><rect fill="rgb(0,0,0)" stroke="none" x="19.28125" y="-0.6666666865348816" width="74" height="29" fill-opacity="0"/></g><text fill="rgb(102, 102, 102)" stroke="none" font-family="Verdana" font-size="24px" font-style="normal" font-weight="700" text-decoration="" line-height="29px" x="19.28125" y="23.33333331346512">Login</text></g></g><g transform="translate(0.5,0.5) matrix(1,0,0,1,615.5428571428571,94.08093571428557)"><g><g transform="translate(0,0) scale(9.750000000000002,9.750000000000002)"><g><g><path fill="#676767" stroke="rbga(0,0,0,0)" stroke-dasharray="1.7976931348623157e+308" d="M 21.01527 5.1925 C 21.01527 5.1925 20.881 2.571875 20.17018 1.7625 C 19.44791 0.94375 18.53091 0.753125 17.86082 0.614375 C 17.07682 0.45125 15.63545 0.228125 13.22236 0.09125 C 12.12018 0.028125 11.25727 0 10.41855 0 C 9.679091 0 9.010273 0.020625 8.159455 0.046875 L 7.750273 0.06 C 6.120545 0.10875 4.823636 0.233125 4.27 0.28625 C 4.150364 0.2975 4.068273 0.305 4.025636 0.308125 C 3.968364 0.3125 3.797182 0.323125 3.729727 0.4475 C 3.726545 0.45625 3.720818 0.46375 3.718909 0.471875 C 3.466273 0.51375 2.819091 0.629375 2.306818 0.785625 C 1.453455 1.046875 0.9850909 1.3825 0.5765455 2.026875 C 0.2036364 2.61625 0.1304545 3.6075 0.1030909 3.980625 C 0.09863636 4.019375 0.09609091 4.074375 0.09609091 4.074375 L 0 32.5375 L 0.1387273 35.10688 C 0.1387273 35.10688 0.6726364 37.835 1.207818 38.42688 C 1.693364 38.96563 2.333545 39.28688 3.282364 39.46625 C 3.384182 39.485 3.480273 39.50438 3.573182 39.5225 C 4.288455 39.6625 4.853545 39.7725 6.821182 39.87438 C 7.019091 39.885 7.211273 39.89375 7.401545 39.905 C 8.295 39.95437 9.140727 40 10.27027 40 C 11.07273 40 11.95855 39.9775 12.98245 39.93062 C 16.56073 39.76188 18.33555 39.56125 19.38936 38.81 C 20.42664 38.07062 20.66273 36.97937 20.82055 36.2575 L 20.82755 36.22687 C 21.01018 35.385 21.08145 32.89625 21.08145 32.89625 L 21.01527 5.1925 L 21.01527 5.1925 Z M 10.52545 37.96563 C 9.909455 37.96563 9.411182 37.47563 9.411182 36.87125 C 9.411182 36.26687 9.909455 35.7775 10.52545 35.7775 C 11.14145 35.7775 11.64036 36.26687 11.64036 36.87125 C 11.64036 37.47563 11.14082 37.96563 10.52545 37.96563 L 10.52545 37.96563 Z M 19.24555 32.11125 L 1.755091 32.11125 L 1.755091 4.715 L 19.24491 4.715 L 19.24555 32.11125 L 19.24555 32.11125 Z" stroke-miterlimit="10"/></g></g></g></g></g><g transform="translate(0,0) matrix(1,0,0,1,649.9714285714288,363.19999999999993)"><g><g transform="translate(0,0) scale(1.38,0.32)"><g><g transform="scale(0.7246376811594204,3.125)"><path fill="#FFFFFF" stroke="none" stroke-dasharray="1.7976931348623157e+308" d="M 15.999999999999998 0 L 122 0 C 130.8365559972927 0 138 7.163444002707303 138 16 C 138 24.8365559972927 130.8365559972927 32 122 32 L 15.999999999999998 32 C 7.163444002707302 32 0 24.8365559972927 0 16 C 0 7.163444002707303 7.163444002707302 0 15.999999999999998 0 Z"/><path fill="none" stroke="#666666" stroke-dasharray="1.7976931348623157e+308" d="M 15.999999999999998 0 L 122 0 C 130.8365559972927 0 138 7.163444002707303 138 16 C 138 24.8365559972927 130.8365559972927 32 122 32 L 15.999999999999998 32 C 7.163444002707302 32 0 24.8365559972927 0 16 C 0 7.163444002707303 7.163444002707302 0 15.999999999999998 0 Z" stroke-miterlimit="10" stroke-width="2"/></g></g></g></g></g><g transform="translate(0,0) matrix(1,0,0,1,649.9714285714288,363.19999999999993)"><g><g transform="translate(0,0) scale(0.32,0.32)"><g><path fill="#FFFFFF" stroke="none" stroke-dasharray="1.7976931348623157e+308" d="M 100 50 A 50 50 0 1 0 99.99997500000208 50.04999999166668 Z"/><g transform="scale(3.125,3.125)"><path fill="none" stroke="#666666" stroke-dasharray="1.7976931348623157e+308" d="M 16 0 C 24.8365552 0 32 7.163444800000001 32 16 C 32 24.8365552 24.8365552 32 16 32 C 7.163444800000001 32 0 24.8365552 0 16 C 0 7.163444800000001 7.163444800000001 0 16 0 Z" stroke-miterlimit="10" stroke-width="2"/></g></g></g></g></g><g transform="matrix(1,0,0,1,638,366)"><g><g><rect fill="rgb(0,0,0)" stroke="none" x="0" y="0" width="57" height="27" fill-opacity="0"/></g></g><g><g><rect fill="rgb(0,0,0)" stroke="none" x="0" y="0" width="57" height="27" fill-opacity="0"/></g></g><g><g><rect fill="rgb(0,0,0)" stroke="none" x="21.197917938232422" y="-0.6666666865348816" width="14" height="27" fill-opacity="0"/></g></g><g><g><rect fill="rgb(0,0,0)" stroke="none" x="21.197917938232422" y="-0.6666666865348816" width="14" height="27" fill-opacity="0"/></g><text fill="rgb(102, 102, 102)" stroke="none" font-family="Arial" font-size="24px" font-style="normal" font-weight="normal" text-decoration="" line-height="27px" x="21.197917938232422" y="20.33333331346512">&gt;</text></g></g><g transform="matrix(1,0,0,1,668,370)"><g><g><rect fill="rgb(0,0,0)" stroke="none" x="0" y="0" width="113" height="19" fill-opacity="0"/></g></g><g><g><rect fill="rgb(0,0,0)" stroke="none" x="0" y="0" width="113" height="19" fill-opacity="0"/></g></g><g><g><rect fill="rgb(0,0,0)" stroke="none" x="24.5" y="0" width="63" height="19" fill-opacity="0"/></g></g><g><g><rect fill="rgb(0,0,0)" stroke="none" x="24.5" y="0" width="63" height="19" fill-opacity="0"/></g><text fill="rgb(102, 102, 102)" stroke="none" font-family="Verdana" font-size="16px" font-style="normal" font-weight="normal" text-decoration="" line-height="19.75px" x="24.5" y="15">Confirm</text></g></g><g transform="translate(0.5,0.5) matrix(1,0,0,1,851.1142857142859,94.08093571428557)"><g><g transform="translate(0,0) scale(9.750000000000002,9.750000000000002)"><g><g><path fill="#676767" stroke="rbga(0,0,0,0)" stroke-dasharray="1.7976931348623157e+308" d="M 21.01527 5.1925 C 21.01527 5.1925 20.881 2.571875 20.17018 1.7625 C 19.44791 0.94375 18.53091 0.753125 17.86082 0.614375 C 17.07682 0.45125 15.63545 0.228125 13.22236 0.09125 C 12.12018 0.028125 11.25727 0 10.41855 0 C 9.679091 0 9.010273 0.020625 8.159455 0.046875 L 7.750273 0.06 C 6.120545 0.10875 4.823636 0.233125 4.27 0.28625 C 4.150364 0.2975 4.068273 0.305 4.025636 0.308125 C 3.968364 0.3125 3.797182 0.323125 3.729727 0.4475 C 3.726545 0.45625 3.720818 0.46375 3.718909 0.471875 C 3.466273 0.51375 2.819091 0.629375 2.306818 0.785625 C 1.453455 1.046875 0.9850909 1.3825 0.5765455 2.026875 C 0.2036364 2.61625 0.1304545 3.6075 0.1030909 3.980625 C 0.09863636 4.019375 0.09609091 4.074375 0.09609091 4.074375 L 0 32.5375 L 0.1387273 35.10688 C 0.1387273 35.10688 0.6726364 37.835 1.207818 38.42688 C 1.693364 38.96563 2.333545 39.28688 3.282364 39.46625 C 3.384182 39.485 3.480273 39.50438 3.573182 39.5225 C 4.288455 39.6625 4.853545 39.7725 6.821182 39.87438 C 7.019091 39.885 7.211273 39.89375 7.401545 39.905 C 8.295 39.95437 9.140727 40 10.27027 40 C 11.07273 40 11.95855 39.9775 12.98245 39.93062 C 16.56073 39.76188 18.33555 39.56125 19.38936 38.81 C 20.42664 38.07062 20.66273 36.97937 20.82055 36.2575 L 20.82755 36.22687 C 21.01018 35.385 21.08145 32.89625 21.08145 32.89625 L 21.01527 5.1925 L 21.01527 5.1925 Z M 10.52545 37.96563 C 9.909455 37.96563 9.411182 37.47563 9.411182 36.87125 C 9.411182 36.26687 9.909455 35.7775 10.52545 35.7775 C 11.14145 35.7775 11.64036 36.26687 11.64036 36.87125 C 11.64036 37.47563 11.14082 37.96563 10.52545 37.96563 L 10.52545 37.96563 Z M 19.24555 32.11125 L 1.755091 32.11125 L 1.755091 4.715 L 19.24491 4.715 L 19.24555 32.11125 L 19.24555 32.11125 Z" stroke-miterlimit="10"/></g></g></g></g></g><g transform="matrix(1,0,0,1,652,245)"><g><g><rect fill="rgb(0,0,0)" stroke="none" x="0" y="0" width="125" height="57" fill-opacity="0"/></g></g><g><g><rect fill="rgb(0,0,0)" stroke="none" x="0" y="0" width="125" height="29" fill-opacity="0"/></g></g><g><g><rect fill="rgb(0,0,0)" stroke="none" x="2.875" y="-0.6666666865348816" width="119" height="29" fill-opacity="0"/></g></g><g><g><rect fill="rgb(0,0,0)" stroke="none" x="2.875" y="-0.6666666865348816" width="119" height="29" fill-opacity="0"/></g><text fill="rgb(102, 102, 102)" stroke="none" font-family="Verdana" font-size="24px" font-style="normal" font-weight="700" text-decoration="" line-height="29px" x="2.875" y="23.33333331346512">€</text><text fill="rgb(102, 102, 102)" stroke="none" font-family="Verdana" font-size="24px" font-style="normal" font-weight="700" text-decoration="" line-height="29px" x="28.135417938232422" y="23.33333331346512">200</text><text fill="rgb(102, 102, 102)" stroke="none" font-family="Verdana" font-size="24px" font-style="normal" font-weight="700" text-decoration="" line-height="29px" x="79.32292175292969" y="23.33333331346512">,</text><text fill="rgb(102, 102, 102)" stroke="none" font-family="Verdana" font-size="24px" font-style="normal" font-weight="700" text-decoration="" line-height="29px" x="88" y="23.33333331346512">00</text></g></g><g transform="translate(0.5,0.5) matrix(1,0,0,1,83.40000000000008,92.86664999999991)"><g><g transform="translate(0,0) scale(9.750000000000002,9.750000000000002)"><g><g><path fill="#676767" stroke="rbga(0,0,0,0)" stroke-dasharray="1.7976931348623157e+308" d="M 21.01527 5.1925 C 21.01527 5.1925 20.881 2.571875 20.17018 1.7625 C 19.44791 0.94375 18.53091 0.753125 17.86082 0.614375 C 17.07682 0.45125 15.63545 0.228125 13.22236 0.09125 C 12.12018 0.028125 11.25727 0 10.41855 0 C 9.679091 0 9.010273 0.020625 8.159455 0.046875 L 7.750273 0.06 C 6.120545 0.10875 4.823636 0.233125 4.27 0.28625 C 4.150364 0.2975 4.068273 0.305 4.025636 0.308125 C 3.968364 0.3125 3.797182 0.323125 3.729727 0.4475 C 3.726545 0.45625 3.720818 0.46375 3.718909 0.471875 C 3.466273 0.51375 2.819091 0.629375 2.306818 0.785625 C 1.453455 1.046875 0.9850909 1.3825 0.5765455 2.026875 C 0.2036364 2.61625 0.1304545 3.6075 0.1030909 3.980625 C 0.09863636 4.019375 0.09609091 4.074375 0.09609091 4.074375 L 0 32.5375 L 0.1387273 35.10688 C 0.1387273 35.10688 0.6726364 37.835 1.207818 38.42688 C 1.693364 38.96563 2.333545 39.28688 3.282364 39.46625 C 3.384182 39.485 3.480273 39.50438 3.573182 39.5225 C 4.288455 39.6625 4.853545 39.7725 6.821182 39.87438 C 7.019091 39.885 7.211273 39.89375 7.401545 39.905 C 8.295 39.95437 9.140727 40 10.27027 40 C 11.07273 40 11.95855 39.9775 12.98245 39.93062 C 16.56073 39.76188 18.33555 39.56125 19.38936 38.81 C 20.42664 38.07062 20.66273 36.97937 20.82055 36.2575 L 20.82755 36.22687 C 21.01018 35.385 21.08145 32.89625 21.08145 32.89625 L 21.01527 5.1925 L 21.01527 5.1925 Z M 10.52545 37.96563 C 9.909455 37.96563 9.411182 37.47563 9.411182 36.87125 C 9.411182 36.26687 9.909455 35.7775 10.52545 35.7775 C 11.14145 35.7775 11.64036 36.26687 11.64036 36.87125 C 11.64036 37.47563 11.14082 37.96563 10.52545 37.96563 L 10.52545 37.96563 Z M 19.24555 32.11125 L 1.755091 32.11125 L 1.755091 4.715 L 19.24491 4.715 L 19.24555 32.11125 L 19.24555 32.11125 Z" stroke-miterlimit="10"/></g></g></g></g></g><g transform="matrix(1,0,0,1,89,192)"><g><g><rect fill="rgb(0,0,0)" stroke="none" x="0" y="0" width="196" height="16" fill-opacity="0"/></g></g><g><g><rect fill="rgb(0,0,0)" stroke="none" x="0" y="0" width="196" height="16" fill-opacity="0"/></g></g><g><g><rect fill="rgb(0,0,0)" stroke="none" x="26.45833396911621" y="0" width="143" height="16" fill-opacity="0"/></g></g><g><g><rect fill="rgb(0,0,0)" stroke="none" x="26.45833396911621" y="0" width="143" height="16" fill-opacity="0"/></g><text fill="rgb(102, 102, 102)" stroke="none" font-family="Verdana" font-size="13px" font-style="normal" font-weight="700" text-decoration="" line-height="16.5px" x="26.45833396911621" y="13">Cart</text><text fill="rgb(102, 102, 102)" stroke="none" font-family="Verdana" font-size="13px" font-style="normal" font-weight="700" text-decoration="" line-height="16.5px" x="61.375" y="13">total</text><text fill="rgb(102, 102, 102)" stroke="none" font-family="Verdana" font-size="13px" font-style="normal" font-weight="700" text-decoration="" line-height="16.5px" x="95.27083587646484" y="13">:</text><text fill="rgb(102, 102, 102)" stroke="none" font-family="Verdana" font-size="13px" font-style="normal" font-weight="700" text-decoration="" line-height="16.5px" x="104.9375" y="13">€</text><text fill="rgb(102, 102, 102)" stroke="none" font-family="Verdana" font-size="13px" font-style="normal" font-weight="700" text-decoration="" line-height="16.5px" x="118.625" y="13">200</text><text fill="rgb(102, 102, 102)" stroke="none" font-family="Verdana" font-size="13px" font-style="normal" font-weight="700" text-decoration="" line-height="16.5px" x="146.3541717529297" y="13">,</text><text fill="rgb(102, 102, 102)" stroke="none" font-family="Verdana" font-size="13px" font-style="normal" font-weight="700" text-decoration="" line-height="16.5px" x="151.05209350585938" y="13">00</text></g></g><g transform="translate(0,0) matrix(1,0,0,1,114.09000000000003,278.03329999999994)"><g><g transform="translate(0,0) scale(1.44,0.35)"><g><path fill="#FFFFFF" stroke="none" stroke-dasharray="1.7976931348623157e+308" d="M 0 0 L 100 0 Q 100 0 100 0 L 100 100 Q 100 100 100 100 L 0 100 Q 0 100 0 100 L 0 0 Q 0 0 0 0 Z"/><g transform="scale(0.6944444444444444,2.857142857142857)"><path fill="none" stroke="none" stroke-dasharray="1.7976931348623157e+308" d="M 0 0 L 144 0 Q 144 0 144 0 L 144 35 Q 144 35 144 35 L 0 35 Q 0 35 0 35 L 0 0 Q 0 0 0 0 Z"/><path fill="none" stroke="#666666" stroke-dasharray="1.7976931348623157e+308" d="M 0 0 L 144 0 Q 144 0 144 0 L 144 35 Q 144 35 144 35 L 0 35 Q 0 35 0 35 L 0 0 Q 0 0 0 0 Z" stroke-miterlimit="10" stroke-width="2"/></g></g></g></g></g><g transform="matrix(1,0,0,1,125,289)"><g><g><rect fill="rgb(0,0,0)" stroke="none" x="0" y="0" width="123" height="14" fill-opacity="0"/></g></g><g><g><rect fill="rgb(0,0,0)" stroke="none" x="0" y="0" width="123" height="14" fill-opacity="0"/></g></g><g><g><rect fill="rgb(0,0,0)" stroke="none" x="0" y="-0.6666666865348816" width="69" height="15" fill-opacity="0"/></g></g><g><g><rect fill="rgb(0,0,0)" stroke="none" x="0" y="-0.6666666865348816" width="69" height="15" fill-opacity="0"/></g><text fill="rgb(102, 102, 102)" stroke="none" font-family="Verdana" font-size="12px" font-style="normal" font-weight="700" text-decoration="" line-height="14.5px" x="0" y="10.333333313465118">MobilePay</text></g></g><g transform="translate(0,0) matrix(1,0,0,1,114.09000000000003,313.03329999999994)"><g><g transform="translate(0,0) scale(1.44,0.35)"><g><path fill="#e2e2e2" stroke="none" stroke-dasharray="1.7976931348623157e+308" d="M 0 0 L 100 0 Q 100 0 100 0 L 100 100 Q 100 100 100 100 L 0 100 Q 0 100 0 100 L 0 0 Q 0 0 0 0 Z"/><g transform="scale(0.6944444444444444,2.857142857142857)"><path fill="none" stroke="none" stroke-dasharray="1.7976931348623157e+308" d="M 0 0 L 144 0 Q 144 0 144 0 L 144 35 Q 144 35 144 35 L 0 35 Q 0 35 0 35 L 0 0 Q 0 0 0 0 Z"/><path fill="none" stroke="#666666" stroke-dasharray="1.7976931348623157e+308" d="M 0 0 L 144 0 Q 144 0 144 0 L 144 35 Q 144 35 144 35 L 0 35 Q 0 35 0 35 L 0 0 Q 0 0 0 0 Z" stroke-miterlimit="10" stroke-width="2"/></g></g></g></g></g><g transform="matrix(1,0,0,1,125,325)"><g><g><rect fill="rgb(0,0,0)" stroke="none" x="0" y="0" width="123" height="12" fill-opacity="0"/></g></g><g><g><rect fill="rgb(0,0,0)" stroke="none" x="0" y="0" width="123" height="12" fill-opacity="0"/></g></g><g><g><rect fill="rgb(0,0,0)" stroke="none" x="0" y="0" width="37" height="12" fill-opacity="0"/></g></g><g><g><rect fill="rgb(0,0,0)" stroke="none" x="0" y="0" width="37" height="12" fill-opacity="0"/></g><text fill="rgb(153, 153, 153)" stroke="none" font-family="Verdana" font-size="10px" font-style="normal" font-weight="700" text-decoration="" line-height="12.5px" x="0" y="10">Card</text><text fill="rgb(153, 153, 153)" stroke="none" font-family="Verdana" font-size="10px" font-style="normal" font-weight="700" text-decoration="" line-height="12.5px" x="29.291667938232422" y="10">X</text></g></g><g transform="translate(0,0) matrix(1,0,0,1,114.09000000000003,259.03329999999994)"><g><g transform="translate(0,0) scale(1.44,0.19)"><g><path fill="#e2e2e2" stroke="none" stroke-dasharray="1.7976931348623157e+308" d="M 0 0 L 100 0 Q 100 0 100 0 L 100 100 Q 100 100 100 100 L 0 100 Q 0 100 0 100 L 0 0 Q 0 0 0 0 Z"/><g transform="scale(0.6944444444444444,5.2631578947368425)"><path fill="none" stroke="none" stroke-dasharray="1.7976931348623157e+308" d="M 0 0 L 144 0 Q 144 0 144 0 L 144 19 Q 144 19 144 19 L 0 19 Q 0 19 0 19 L 0 0 Q 0 0 0 0 Z"/><path fill="none" stroke="#666666" stroke-dasharray="1.7976931348623157e+308" d="M 0 0 L 144 0 Q 144 0 144 0 L 144 19 Q 144 19 144 19 L 0 19 Q 0 19 0 19 L 0 0 Q 0 0 0 0 Z" stroke-miterlimit="10" stroke-width="2"/></g></g></g></g></g><g transform="matrix(1,0,0,1,125,262)"><g><g><rect fill="rgb(0,0,0)" stroke="none" x="0" y="0" width="123" height="14" fill-opacity="0"/></g></g><g><g><rect fill="rgb(0,0,0)" stroke="none" x="0" y="0" width="123" height="14" fill-opacity="0"/></g></g><g><g><rect fill="rgb(0,0,0)" stroke="none" x="36.208335876464844" y="-0.6666666865348816" width="51" height="15" fill-opacity="0"/></g></g><g><g><rect fill="rgb(0,0,0)" stroke="none" x="36.208335876464844" y="-0.6666666865348816" width="51" height="15" fill-opacity="0"/></g><text fill="rgb(102, 102, 102)" stroke="none" font-family="Verdana" font-size="12px" font-style="normal" font-weight="normal" text-decoration="" line-height="14.5px" x="36.208335876464844" y="10.333333313465118">Pay</text><text fill="rgb(102, 102, 102)" stroke="none" font-family="Verdana" font-size="12px" font-style="normal" font-weight="normal" text-decoration="" line-height="14.5px" x="61.583335876464844" y="10.333333313465118">with</text></g></g><g transform="translate(0,0) matrix(1,0,0,1,114.09000000000003,347.69999999999993)"><g><g transform="translate(0,0) scale(1.44,0.35)"><g><path fill="#e2e2e2" stroke="none" stroke-dasharray="1.7976931348623157e+308" d="M 0 0 L 100 0 Q 100 0 100 0 L 100 100 Q 100 100 100 100 L 0 100 Q 0 100 0 100 L 0 0 Q 0 0 0 0 Z"/><g transform="scale(0.6944444444444444,2.857142857142857)"><path fill="none" stroke="none" stroke-dasharray="1.7976931348623157e+308" d="M 0 0 L 144 0 Q 144 0 144 0 L 144 35 Q 144 35 144 35 L 0 35 Q 0 35 0 35 L 0 0 Q 0 0 0 0 Z"/><path fill="none" stroke="#666666" stroke-dasharray="1.7976931348623157e+308" d="M 0 0 L 144 0 Q 144 0 144 0 L 144 35 Q 144 35 144 35 L 0 35 Q 0 35 0 35 L 0 0 Q 0 0 0 0 Z" stroke-miterlimit="10" stroke-width="2"/></g></g></g></g></g><g transform="matrix(1,0,0,1,125,359)"><g><g><rect fill="rgb(0,0,0)" stroke="none" x="0" y="0" width="123" height="12" fill-opacity="0"/></g></g><g><g><rect fill="rgb(0,0,0)" stroke="none" x="0" y="0" width="123" height="12" fill-opacity="0"/></g></g><g><g><rect fill="rgb(0,0,0)" stroke="none" x="0" y="0" width="37" height="12" fill-opacity="0"/></g></g><g><g><rect fill="rgb(0,0,0)" stroke="none" x="0" y="0" width="37" height="12" fill-opacity="0"/></g><text fill="rgb(153, 153, 153)" stroke="none" font-family="Verdana" font-size="10px" font-style="normal" font-weight="700" text-decoration="" line-height="12.5px" x="0" y="10">Card</text><text fill="rgb(153, 153, 153)" stroke="none" font-family="Verdana" font-size="10px" font-style="normal" font-weight="700" text-decoration="" line-height="12.5px" x="29.291667938232422" y="10">Y</text></g></g><g transform="translate(0,0) matrix(1,0,0,1,233.89,290.69999999999993)"><g><g transform="translate(0,0) scale(0.15,0.15)"><g><path fill="#434343" stroke="none" stroke-dasharray="1.7976931348623157e+308" d="M 100 50 A 50 50 0 1 0 99.99997500000208 50.04999999166668 Z"/><g transform="scale(6.666666666666667,6.666666666666667)"><path fill="none" stroke="#666666" stroke-dasharray="1.7976931348623157e+308" d="M 7.5 0 C 11.642135249999999 0 15 3.35786475 15 7.5 C 15 11.642135249999999 11.642135249999999 15 7.5 15 C 3.35786475 15 0 11.642135249999999 0 7.5 C 0 3.35786475 3.35786475 0 7.5 0 Z" stroke-miterlimit="10" stroke-width="2"/></g></g></g></g></g><g transform="translate(0,0) matrix(1,0,0,1,233.89,323.03329999999994)"><g><g transform="translate(0,0) scale(0.15,0.15)"><g><path fill="#e2e2e2" stroke="none" stroke-dasharray="1.7976931348623157e+308" d="M 100 50 A 50 50 0 1 0 99.99997500000208 50.04999999166668 Z"/><g transform="scale(6.666666666666667,6.666666666666667)"><path fill="none" stroke="#666666" stroke-dasharray="1.7976931348623157e+308" d="M 7.5 0 C 11.642135249999999 0 15 3.35786475 15 7.5 C 15 11.642135249999999 11.642135249999999 15 7.5 15 C 3.35786475 15 0 11.642135249999999 0 7.5 C 0 3.35786475 3.35786475 0 7.5 0 Z" stroke-miterlimit="10" stroke-width="2"/></g></g></g></g></g><g transform="translate(0,0) matrix(1,0,0,1,233.89,357.69999999999993)"><g><g transform="translate(0,0) scale(0.15,0.15)"><g><path fill="#e2e2e2" stroke="none" stroke-dasharray="1.7976931348623157e+308" d="M 100 50 A 50 50 0 1 0 99.99997500000208 50.04999999166668 Z"/><g transform="scale(6.666666666666667,6.666666666666667)"><path fill="none" stroke="#666666" stroke-dasharray="1.7976931348623157e+308" d="M 7.5 0 C 11.642135249999999 0 15 3.35786475 15 7.5 C 15 11.642135249999999 11.642135249999999 15 7.5 15 C 3.35786475 15 0 11.642135249999999 0 7.5 C 0 3.35786475 3.35786475 0 7.5 0 Z" stroke-miterlimit="10" stroke-width="2"/></g></g></g></g></g><g transform="translate(0.5,0.5) matrix(1,0,0,1,1144.0666666666666,95.1999999999999)"><g><g transform="translate(0,0) scale(9.750000000000002,9.750000000000002)"><g><g><path fill="#676767" stroke="rbga(0,0,0,0)" stroke-dasharray="1.7976931348623157e+308" d="M 21.01527 5.1925 C 21.01527 5.1925 20.881 2.571875 20.17018 1.7625 C 19.44791 0.94375 18.53091 0.753125 17.86082 0.614375 C 17.07682 0.45125 15.63545 0.228125 13.22236 0.09125 C 12.12018 0.028125 11.25727 0 10.41855 0 C 9.679091 0 9.010273 0.020625 8.159455 0.046875 L 7.750273 0.06 C 6.120545 0.10875 4.823636 0.233125 4.27 0.28625 C 4.150364 0.2975 4.068273 0.305 4.025636 0.308125 C 3.968364 0.3125 3.797182 0.323125 3.729727 0.4475 C 3.726545 0.45625 3.720818 0.46375 3.718909 0.471875 C 3.466273 0.51375 2.819091 0.629375 2.306818 0.785625 C 1.453455 1.046875 0.9850909 1.3825 0.5765455 2.026875 C 0.2036364 2.61625 0.1304545 3.6075 0.1030909 3.980625 C 0.09863636 4.019375 0.09609091 4.074375 0.09609091 4.074375 L 0 32.5375 L 0.1387273 35.10688 C 0.1387273 35.10688 0.6726364 37.835 1.207818 38.42688 C 1.693364 38.96563 2.333545 39.28688 3.282364 39.46625 C 3.384182 39.485 3.480273 39.50438 3.573182 39.5225 C 4.288455 39.6625 4.853545 39.7725 6.821182 39.87438 C 7.019091 39.885 7.211273 39.89375 7.401545 39.905 C 8.295 39.95437 9.140727 40 10.27027 40 C 11.07273 40 11.95855 39.9775 12.98245 39.93062 C 16.56073 39.76188 18.33555 39.56125 19.38936 38.81 C 20.42664 38.07062 20.66273 36.97937 20.82055 36.2575 L 20.82755 36.22687 C 21.01018 35.385 21.08145 32.89625 21.08145 32.89625 L 21.01527 5.1925 L 21.01527 5.1925 Z M 10.52545 37.96563 C 9.909455 37.96563 9.411182 37.47563 9.411182 36.87125 C 9.411182 36.26687 9.909455 35.7775 10.52545 35.7775 C 11.14145 35.7775 11.64036 36.26687 11.64036 36.87125 C 11.64036 37.47563 11.14082 37.96563 10.52545 37.96563 L 10.52545 37.96563 Z M 19.24555 32.11125 L 1.755091 32.11125 L 1.755091 4.715 L 19.24491 4.715 L 19.24555 32.11125 L 19.24555 32.11125 Z" stroke-miterlimit="10"/></g></g></g></g></g><g transform="matrix(1,0,0,1,1152,260)"><g><g><rect fill="rgb(0,0,0)" stroke="none" x="0" y="0" width="196" height="35" fill-opacity="0"/></g></g><g><g><rect fill="rgb(0,0,0)" stroke="none" x="0" y="0" width="196" height="17" fill-opacity="0"/></g></g><g><g><rect fill="rgb(0,0,0)" stroke="none" x="46.01041793823242" y="0" width="104" height="17" fill-opacity="0"/></g></g><g><g><rect fill="rgb(0,0,0)" stroke="none" x="46.01041793823242" y="0" width="104" height="17" fill-opacity="0"/></g><text fill="rgb(102, 102, 102)" stroke="none" font-family="Verdana" font-size="14px" font-style="normal" font-weight="normal" text-decoration="" line-height="17.5px" x="46.01041793823242" y="14">Order</text><text fill="rgb(102, 102, 102)" stroke="none" font-family="Verdana" font-size="14px" font-style="normal" font-weight="normal" text-decoration="" line-height="17.5px" x="90.95833587646484" y="14">received</text></g><g><g><rect fill="rgb(0,0,0)" stroke="none" x="0" y="17.33333396911621" width="196" height="17" fill-opacity="0"/></g></g><g><g><rect fill="rgb(0,0,0)" stroke="none" x="61.25" y="17.33333396911621" width="73" height="17" fill-opacity="0"/></g></g><g><g><rect fill="rgb(0,0,0)" stroke="none" x="61.25" y="17.33333396911621" width="73" height="17" fill-opacity="0"/></g><text fill="rgb(102, 102, 102)" stroke="none" font-family="Verdana" font-size="14px" font-style="normal" font-weight="normal" text-decoration="" line-height="17.5px" x="61.25" y="31.33333396911621">Thank</text><text fill="rgb(102, 102, 102)" stroke="none" font-family="Verdana" font-size="14px" font-style="normal" font-weight="normal" text-decoration="" line-height="17.5px" x="109.20833587646484" y="31.33333396911621">you</text></g></g><g transform="translate(0,0) matrix(-1.8369701987210297e-16,-1,1,-1.8369701987210297e-16,316.06666666666666,403.5333333333332)"><g><g transform="translate(0,0) scale(2.5500000000000003,0.42)"><g><g transform="scale(0.392156862745098,2.380952380952381)"><path fill="#cccccc" stroke="none" stroke-dasharray="1.7976931348623157e+308" d="M 0 0 L 255.00000000000003 0 L 127.50000000000001 42 L 0 0 Z"/><path fill="none" stroke="#cccccc" stroke-dasharray="1.7976931348623157e+308" d="M 0 0 L 255.00000000000003 0 L 127.50000000000001 42 L 0 0 Z" stroke-miterlimit="10" stroke-width="2"/></g></g></g></g></g><g transform="matrix(1,0,0,1,130,522)"><g><g><rect fill="rgb(0,0,0)" stroke="none" x="0" y="0" width="113" height="29" fill-opacity="0"/></g></g><g><g><rect fill="rgb(0,0,0)" stroke="none" x="0" y="0" width="113" height="29" fill-opacity="0"/></g></g><g><g><rect fill="rgb(0,0,0)" stroke="none" x="1.6979167461395264" y="-0.6666666865348816" width="109" height="29" fill-opacity="0"/></g></g><g><g><rect fill="rgb(0,0,0)" stroke="none" x="1.6979167461395264" y="-0.6666666865348816" width="109" height="29" fill-opacity="0"/></g><text fill="rgb(102, 102, 102)" stroke="none" font-family="Verdana" font-size="24px" font-style="normal" font-weight="normal" text-decoration="" line-height="29px" x="1.6979167461395264" y="23.33333331346512">Webshop</text></g></g><g transform="translate(0,0) matrix(1,0,0,1,927.9892857142859,243.0333333333333)"><g><g transform="translate(0,0) scale(0.52,0.52)"><g><path fill="#FFFFFF" stroke="none" stroke-dasharray="1.7976931348623157e+308" d="M 100 50 A 50 50 0 1 0 99.99997500000208 50.04999999166668 Z"/><g transform="scale(1.923076923076923,1.923076923076923)"><path fill="none" stroke="#ffffff" stroke-dasharray="1.7976931348623157e+308" d="M 26 0 C 40.3594022 0 52 11.640597800000002 52 26 C 52 40.3594022 40.3594022 52 26 52 C 11.640597800000002 52 0 40.3594022 0 26 C 0 11.640597800000002 11.640597800000002 0 26 0 Z" stroke-miterlimit="10" stroke-width="2"/></g></g></g></g></g><g transform="translate(0.5,0.5) matrix(1,0,0,1,924.9892857142859,241.5333333333333)"><g><g transform="translate(0,0) scale(1.2954545454545454,1.2954545454545454)"><g><g><g><path fill="#929292" stroke="rgb(0,0,0)" stroke-dasharray="1.7976931348623157e+308" d="M 22 0 C 9.85 0 0 9.85 0 22 C 0 34.15 9.85 44 22 44 C 34.15 44 44 34.15 44 22 C 44 9.85 34.15 0 22 0 Z M 22 42 C 10.954 42 2 33.046 2 22 C 2 10.954 10.954 2 22 2 C 33.046 2 42 10.954 42 22 C 42 33.046 33.046 42 22 42 Z M 17 27 L 11 21 L 9 23 L 17 31 L 34 14 L 32 12 L 17 27 Z" stroke-opacity="0" stroke-miterlimit="10"/></g></g></g></g></g></g><g transform="translate(0,0) matrix(-1.8369701987210297e-16,-1,1,-1.8369701987210297e-16,1082.7333333333331,404.1999999999998)"><g><g transform="translate(0,0) scale(2.55,0.42)"><g><g transform="scale(0.3921568627450981,2.380952380952381)"><path fill="#cccccc" stroke="none" stroke-dasharray="1.7976931348623157e+308" d="M 0 0 L 254.99999999999997 0 L 127.49999999999999 42 L 0 0 Z"/><path fill="none" stroke="#cccccc" stroke-dasharray="1.7976931348623157e+308" d="M 0 0 L 254.99999999999997 0 L 127.49999999999999 42 L 0 0 Z" stroke-miterlimit="10" stroke-width="2"/></g></g></g></g></g><g transform="matrix(1,0,0,1,1194,522)"><g><g><rect fill="rgb(0,0,0)" stroke="none" x="0" y="0" width="113" height="29" fill-opacity="0"/></g></g><g><g><rect fill="rgb(0,0,0)" stroke="none" x="0" y="0" width="113" height="29" fill-opacity="0"/></g></g><g><g><rect fill="rgb(0,0,0)" stroke="none" x="1.6979167461395264" y="-0.6666666865348816" width="109" height="29" fill-opacity="0"/></g></g><g><g><rect fill="rgb(0,0,0)" stroke="none" x="1.6979167461395264" y="-0.6666666865348816" width="109" height="29" fill-opacity="0"/></g><text fill="rgb(102, 102, 102)" stroke="none" font-family="Verdana" font-size="24px" font-style="normal" font-weight="normal" text-decoration="" line-height="29px" x="1.6979167461395264" y="23.33333331346512">Webshop</text></g></g><g transform="matrix(1,0,0,1,624,522)"><g><g><rect fill="rgb(0,0,0)" stroke="none" x="0" y="0" width="201" height="29" fill-opacity="0"/></g></g><g><g><rect fill="rgb(0,0,0)" stroke="none" x="0" y="0" width="201" height="29" fill-opacity="0"/></g></g><g><g><rect fill="rgb(0,0,0)" stroke="none" x="2.8020834922790527" y="-0.6666666865348816" width="195" height="29" fill-opacity="0"/></g></g><g><g><rect fill="rgb(0,0,0)" stroke="none" x="2.8020834922790527" y="-0.6666666865348816" width="195" height="29" fill-opacity="0"/></g><text fill="rgb(102, 102, 102)" stroke="none" font-family="Verdana" font-size="24px" font-style="normal" font-weight="700" text-decoration="" line-height="29px" x="2.8020834922790527" y="23.33333331346512">MobilePay</text><text fill="rgb(102, 102, 102)" stroke="none" font-family="Verdana" font-size="24px" font-style="normal" font-weight="700" text-decoration="" line-height="29px" x="148.59375" y="23.33333331346512">app</text></g></g><g transform="translate(0,0) matrix(1,0,0,1,1233.0206140350876,223.98947368421045)"><g><g transform="translate(0,0) scale(0.2736842105263157,0.2736842105263158)"><g><path fill="#FFFFFF" stroke="none" stroke-dasharray="1.7976931348623157e+308" d="M 100 50 A 50 50 0 1 0 99.99997500000208 50.04999999166668 Z"/><g transform="scale(3.653846153846155,3.6538461538461537)"><path fill="none" stroke="#ffffff" stroke-dasharray="1.7976931348623157e+308" d="M 13.684210526315784 0 C 21.241790631578937 0 27.368421052631568 6.126630421052633 27.368421052631568 13.684210526315791 C 27.368421052631568 21.24179063157895 21.241790631578937 27.368421052631582 13.684210526315784 27.368421052631582 C 6.12663042105263 27.368421052631582 0 21.24179063157895 0 13.684210526315791 C 0 6.126630421052633 6.12663042105263 0 13.684210526315784 0 Z" stroke-miterlimit="10" stroke-width="2"/></g></g></g></g></g><g transform="translate(0.5,0.5) matrix(1,0,0,1,1231.4416666666666,223.19999999999993)"><g><g transform="translate(0,0) scale(0.6818181818181818,0.6818181818181818)"><g><g><g><path fill="#929292" stroke="rgb(0,0,0)" stroke-dasharray="1.7976931348623157e+308" d="M 22 0 C 9.85 0 0 9.85 0 22 C 0 34.15 9.85 44 22 44 C 34.15 44 44 34.15 44 22 C 44 9.85 34.15 0 22 0 Z M 22 42 C 10.954 42 2 33.046 2 22 C 2 10.954 10.954 2 22 2 C 33.046 2 42 10.954 42 22 C 42 33.046 33.046 42 22 42 Z M 17 27 L 11 21 L 9 23 L 17 31 L 34 14 L 32 12 L 17 27 Z" stroke-opacity="0" stroke-miterlimit="10"/></g></g></g></g></g></g></g></svg>